<?xml version="1.0" encoding="utf-8"?>
<!-- Generator: Adobe Illustrator 23.0.5, SVG Export Plug-In . SVG Version: 6.00 Build 0)  -->
<svg version="1.1" id="Layer_1" xmlns="http://www.w3.org/2000/svg" xmlns:xlink="http://www.w3.org/1999/xlink" x="0px" y="0px"
	 viewBox="0 0 840.98 649.86" style="enable-background:new 0 0 840.98 649.86;" xml:space="preserve">
<style type="text/css">
	.st0{fill:url(#SVGID_1_);}
	.st1{fill:#FFFFFF;}
	.st2{fill:#868686;}
	.st3{fill:#0384DA;}
	.st4{fill:#03A7CE;}
	.st5{fill:#03BDC6;}
	.st6{fill:#03D6BD;}
	.st7{fill:url(#SVGID_2_);}
	.st8{fill:url(#SVGID_3_);}
	.st9{fill:url(#SVGID_4_);}
	.st10{fill:url(#SVGID_5_);}
	.st11{fill:url(#SVGID_6_);}
	.st12{fill:url(#SVGID_7_);}
	.st13{fill:url(#SVGID_8_);}
	.st14{fill:url(#SVGID_9_);}
	.st15{fill:url(#SVGID_10_);}
	.st16{fill:url(#SVGID_11_);}
	.st17{fill:url(#SVGID_12_);}
	.st18{fill:url(#SVGID_13_);}
	.st19{fill:url(#SVGID_14_);}
	.st20{fill:url(#SVGID_15_);}
</style>
<linearGradient id="SVGID_1_" gradientUnits="userSpaceOnUse" x1="146.8639" y1="-68.3619" x2="533.9212" y2="298.5171">
	<stop  offset="0" style="stop-color:#0384DA"/>
	<stop  offset="0.3139" style="stop-color:#03D6BD"/>
	<stop  offset="0.6658" style="stop-color:#03BDC6"/>
	<stop  offset="1" style="stop-color:#03A7CE"/>
</linearGradient>
<path class="st0" d="M541.3,91.91c-24.59-38.81-60.19-60.93-105.7-67.1c-2.2-0.3-4.41-0.59-6.62-0.88c-6.5,0-13,0-19.5,0
	c-8.33,1.44-16.86,2.19-24.97,4.44c-55.48,15.43-90.84,51.14-105.38,106.84c-8.47,32.45-2.86,63.89,9.25,94.51
	c12.29,31.09,29.54,59.37,49.02,86.37c22.71,31.47,48.02,60.71,75.55,88.05c1.31,1.3,2.68,2.53,4.02,3.79c1.5,0,3,0,4.5,0
	c22.85-21.87,43.74-45.51,63.32-70.31c21.63-27.4,41.18-56.17,56.41-87.69c9.87-20.42,17.72-41.53,20.68-64.18
	C566.31,152.01,559.43,120.53,541.3,91.91z M445.31,193.27c-3.72,2.99-5.07,5.86-4.96,10.44c0.28,11.15,0.09,22.31,0.09,34.22
	c-12.64,0-24.38,0-36.91,0c0-11.92-0.17-23.49,0.09-35.05c0.09-4.12-1.18-6.61-4.51-9.23c-17.33-13.65-19.19-38.37-4.42-54.33
	c14.46-15.63,39.53-15.84,54.19-0.44C463.88,154.61,462.44,179.47,445.31,193.27z"/>
<path class="st3" d="M368.35,355.74c14.11,16.78,29.01,32.9,44.62,48.4c1.31,1.3,2.68,2.53,4.02,3.79c1.5,0,3,0,4.5,0
	c11.27-10.78,22.05-22,32.45-33.57c-1.64,0.04-3.29,0.07-4.95,0.07C420.05,374.43,392.68,367.7,368.35,355.74z"/>
<path class="st4" d="M485.44,336.82c-19.63,7.19-40.83,11.11-62.95,11.11c-25.73,0-50.22-5.32-72.43-14.91
	c5.94,7.71,12.04,15.28,18.29,22.71c24.33,11.96,51.69,18.69,80.64,18.69c1.65,0,3.3-0.02,4.95-0.07
	c10.68-11.9,20.95-24.17,30.88-36.75C485.02,337.35,485.23,337.08,485.44,336.82z"/>
<path class="st5" d="M541.42,249.5c-33.44,43.72-86.14,71.93-145.43,71.93c-21.99,0-43.07-3.88-62.59-10.99
	c1.33,1.89,2.67,3.77,4.02,5.65c4.13,5.72,8.34,11.36,12.64,16.94c22.21,9.59,46.7,14.91,72.43,14.91
	c22.12,0,43.32-3.92,62.95-11.11c21.38-27.16,40.7-55.68,55.78-86.89C541.29,249.79,541.35,249.64,541.42,249.5z"/>
<path class="st6" d="M541.42,249.5c9.77-20.28,17.54-41.26,20.48-63.75c3.34-25.58,0.19-49.86-9.43-72.58
	c-0.67,100.5-82.33,181.76-182.98,181.76c-17.81,0-35.03-2.56-51.31-7.3c4.85,7.73,9.94,15.33,15.22,22.81
	c19.53,7.11,40.61,10.99,62.59,10.99C455.28,321.43,507.98,293.22,541.42,249.5z"/>
<g>
	<linearGradient id="SVGID_2_" gradientUnits="userSpaceOnUse" x1="52.1989" y1="543.1129" x2="200.7849" y2="631.1639">
		<stop  offset="0" style="stop-color:#0384DA"/>
		<stop  offset="0.3139" style="stop-color:#03D6BD"/>
		<stop  offset="0.6658" style="stop-color:#03BDC6"/>
		<stop  offset="1" style="stop-color:#03A7CE"/>
	</linearGradient>
	<path class="st7" d="M59.41,586.48h67.07v33.35H19.39v-168.6h40.02V586.48z"/>
	<linearGradient id="SVGID_3_" gradientUnits="userSpaceOnUse" x1="97.2438" y1="467.0997" x2="245.8297" y2="555.1506">
		<stop  offset="0" style="stop-color:#0384DA"/>
		<stop  offset="0.3139" style="stop-color:#03D6BD"/>
		<stop  offset="0.6658" style="stop-color:#03BDC6"/>
		<stop  offset="1" style="stop-color:#03A7CE"/>
	</linearGradient>
	<path class="st8" d="M211.87,622.43c-22.71,0-40.27-8.52-52.7-25.57c-12.42-17.04-18.63-37.67-18.63-61.88
		c0-24.62,6.29-45.17,18.88-61.64c12.59-16.47,30.52-24.7,53.81-24.7c23.53,0,41.28,8.79,53.25,26.37
		c11.97,17.58,17.96,37.69,17.96,60.34c0,24.46-6.17,45.08-18.51,61.88C253.59,614.03,235.57,622.43,211.87,622.43z M212.98,480.87
		c-20.71,0-31.06,18.2-31.06,54.59c0,36.48,10.35,54.72,31.06,54.72c20.05,0,30.08-18.2,30.08-54.59
		C243.06,499.11,233.04,480.87,212.98,480.87z"/>
	<linearGradient id="SVGID_4_" gradientUnits="userSpaceOnUse" x1="141.3489" y1="392.6722" x2="289.9349" y2="480.7232">
		<stop  offset="0" style="stop-color:#0384DA"/>
		<stop  offset="0.3139" style="stop-color:#03D6BD"/>
		<stop  offset="0.6658" style="stop-color:#03BDC6"/>
		<stop  offset="1" style="stop-color:#03A7CE"/>
	</linearGradient>
	<path class="st9" d="M450.55,513.98l-41.38,2.59c-0.58-23.8-9.86-35.7-27.85-35.7c-20.63,0-30.94,18.32-30.94,54.96
		c0,21.16,2.8,35.51,8.41,43.05c5.61,7.54,13.45,11.3,23.52,11.3c16.34,0,26.32-10.62,29.95-31.87l38.29,2.35
		c-2.47,20.18-9.99,35.51-22.54,46.01c-12.56,10.5-27.94,15.75-46.13,15.75c-22.32,0-40.45-7.7-54.41-23.1
		c-13.96-15.4-20.94-36.68-20.94-63.86c0-25.44,6.75-46.28,20.26-62.5c13.5-16.22,31.95-24.33,55.34-24.33
		C422.63,448.64,445.44,470.42,450.55,513.98z"/>
	<linearGradient id="SVGID_5_" gradientUnits="userSpaceOnUse" x1="174.1963" y1="337.2422" x2="322.7823" y2="425.2932">
		<stop  offset="0" style="stop-color:#0384DA"/>
		<stop  offset="0.3139" style="stop-color:#03D6BD"/>
		<stop  offset="0.6658" style="stop-color:#03BDC6"/>
		<stop  offset="1" style="stop-color:#03A7CE"/>
	</linearGradient>
	<path class="st10" d="M558.69,451.23l52.78,168.6h-42.45l-10.39-34.71h-54.51l-10.57,34.71h-34.63l54.04-168.6H558.69z M513.6,554
		h35.72l-17.71-59.16L513.6,554z"/>
	<linearGradient id="SVGID_6_" gradientUnits="userSpaceOnUse" x1="222.2999" y1="256.0674" x2="370.8859" y2="344.1184">
		<stop  offset="0" style="stop-color:#0384DA"/>
		<stop  offset="0.3139" style="stop-color:#03D6BD"/>
		<stop  offset="0.6658" style="stop-color:#03BDC6"/>
		<stop  offset="1" style="stop-color:#03A7CE"/>
	</linearGradient>
	<path class="st11" d="M753.86,484.58h-78.93v37.8h62.38v31.5h-62.38v65.96h-41.01v-168.6h119.94V484.58z"/>
	<linearGradient id="SVGID_7_" gradientUnits="userSpaceOnUse" x1="249.388" y1="210.3563" x2="397.974" y2="298.4073">
		<stop  offset="0" style="stop-color:#0384DA"/>
		<stop  offset="0.3139" style="stop-color:#03D6BD"/>
		<stop  offset="0.6658" style="stop-color:#03BDC6"/>
		<stop  offset="1" style="stop-color:#03A7CE"/>
	</linearGradient>
	<path class="st12" d="M817.82,451.23v168.6h-39.4v-168.6H817.82z"/>
</g>
</svg>
